# xmcd
# 
# Track frame offsets:
#     150
#     24146
#     47647
#     70159
#     94261
#     170548
#     254909
# 
# Disc length: 4554
# 
# Revision: 1
# Processed by: cddbd v1.5.2PL0 Copyright (c) Steve Scherf et al.
# Submitted via: fre:ac v1.0.31
# 
DISCID=5a11c807
DTITLE=Aqours - 未体験HORIZON
DYEAR=2019
DGENRE=Anime
TTITLE0=未体験HORIZON
TTITLE1=Deep Resonance
TTITLE2=Dance with Minotaurus
TTITLE3=未体験HORIZON (Off Vocal)
TTITLE4=どきどき! みかん裁判
TTITLE5=集合! ひものパーティー
TTITLE6=とびこめ! ぬまづ城
EXTD=
EXTT0=
EXTT1=
EXTT2=
EXTT3=
EXTT4=
EXTT5=
EXTT6=
PLAYORDER=
